<?xml version="1.0" encoding="UTF-8"?>
<svg width="44px" height="44px" viewBox="0 0 44 44" version="1.1" xmlns="http://www.w3.org/2000/svg" xmlns:xlink="http://www.w3.org/1999/xlink">
    <!-- Generator: Sketch 47.1 (45422) - http://www.bohemiancoding.com/sketch -->
    <title>Fill 62</title>
    <desc>Created with Sketch.</desc>
    <defs></defs>
    <g id="Page-1" stroke="none" stroke-width="1" fill="none" fill-rule="evenodd">
        <g id="Desktop-Copy-4" transform="translate(-593.000000, -3109.000000)" fill="#4DD661">
            <path d="M637,3150.57174 C637,3151.91291 635.912914,3153 634.571736,3153 L623.359293,3153 L623.359293,3135.9614 L629.078777,3135.9614 L629.934543,3129.32023 L623.359293,3129.32023 L623.359293,3125.08096 C623.359293,3123.15848 623.892648,3121.84847 626.650513,3121.84847 L630.167062,3121.84607 L630.167062,3115.90725 C629.558198,3115.82575 627.471521,3115.64596 625.042058,3115.64596 C619.972188,3115.64596 616.501185,3118.74062 616.501185,3124.42295 L616.501185,3129.32023 L610.767318,3129.32023 L610.767318,3135.9614 L616.501185,3135.9614 L616.501185,3153 L595.428264,3153 C594.087086,3153 593,3151.91291 593,3150.57174 L593,3111.42826 C593,3110.08709 594.087086,3109 595.428264,3109 L634.571736,3109 C635.912914,3109 637,3110.08709 637,3111.42826 L637,3150.57174" id="Fill-62"></path>
        </g>
    </g>
</svg>