<?xml version="1.0" encoding="UTF-8"?>
<svg width="44px" height="44px" viewBox="0 0 44 44" version="1.1" xmlns="http://www.w3.org/2000/svg" xmlns:xlink="http://www.w3.org/1999/xlink">
    <!-- Generator: Sketch 47.1 (45422) - http://www.bohemiancoding.com/sketch -->
    <title>Fill 53</title>
    <desc>Created with Sketch.</desc>
    <defs></defs>
    <g id="Page-1" stroke="none" stroke-width="1" fill="none" fill-rule="evenodd">
        <g id="Desktop-Copy-4" transform="translate(-779.000000, -3109.000000)" fill="#4DD661">
            <path d="M818.871587,3147.50105 C818.871587,3148.25953 818.259526,3148.87519 817.50345,3148.87519 L784.50015,3148.87519 C783.740474,3148.87519 783.124812,3148.25953 783.124812,3147.50105 L783.124812,3126.87579 L788.624962,3126.87579 C787.908491,3127.90669 787.666067,3129.83048 787.666067,3131.05101 C787.666067,3138.41494 793.669067,3144.40594 801.049805,3144.40594 C808.430543,3144.40594 814.431143,3138.41494 814.431143,3131.05101 C814.431143,3129.83048 814.263126,3127.93549 813.375038,3126.87579 L818.871587,3126.87579 L818.871587,3147.50105 Z M801.049805,3122.61056 C805.718272,3122.61056 809.510651,3126.38974 809.510651,3131.05101 C809.510651,3135.71347 805.718272,3139.49385 801.049805,3139.49385 C796.381338,3139.49385 792.588959,3135.71347 792.588959,3131.05101 C792.588959,3126.38974 796.381338,3122.61056 801.049805,3122.61056 Z M810.626763,3115.87549 C810.626763,3115.11581 811.238824,3114.50015 811.994899,3114.50015 L816.123312,3114.50015 C816.879388,3114.50015 817.50345,3115.11581 817.50345,3115.87549 L817.50345,3120.0003 C817.50345,3120.75998 816.879388,3121.37564 816.123312,3121.37564 L811.994899,3121.37564 C811.238824,3121.37564 810.626763,3120.75998 810.626763,3120.0003 L810.626763,3115.87549 Z M817.767477,3109 L784.230123,3109 C781.341434,3109 779,3111.33663 779,3114.21812 L779,3147.78188 C779,3150.66457 781.341434,3153 784.230123,3153 L817.767477,3153 C820.659766,3153 823,3150.66457 823,3147.78188 L823,3114.21812 C823,3111.33663 820.659766,3109 817.767477,3109 L817.767477,3109 Z" id="Fill-53"></path>
        </g>
    </g>
</svg>