<?xml version="1.0" encoding="UTF-8"?>
<svg width="44px" height="37px" viewBox="0 0 44 37" version="1.1" xmlns="http://www.w3.org/2000/svg" xmlns:xlink="http://www.w3.org/1999/xlink">
    <!-- Generator: Sketch 47.1 (45422) - http://www.bohemiancoding.com/sketch -->
    <title>Fill 54</title>
    <desc>Created with Sketch.</desc>
    <defs></defs>
    <g id="Page-1" stroke="none" stroke-width="1" fill="none" fill-rule="evenodd">
        <g id="Desktop-Copy-4" transform="translate(-684.000000, -3113.000000)" fill="#4DD661">
            <path d="M726.786458,3113.68402 C725.040743,3114.75214 723.111764,3115.52981 721.050035,3115.9471 C719.4077,3114.13213 717.060501,3113 714.4619,3113 C709.480857,3113 705.438458,3117.18237 705.438458,3122.34039 C705.438458,3123.07183 705.515993,3123.78312 705.671063,3124.46714 C698.168954,3124.07712 691.518556,3120.36183 687.063812,3114.70472 C686.286111,3116.08936 685.842046,3117.6945 685.842046,3119.40515 C685.842046,3122.64506 687.43504,3125.50444 689.857425,3127.17952 C688.380734,3127.13447 686.986276,3126.70888 685.766861,3126.01419 L685.766861,3126.12919 C685.766861,3130.65653 688.878838,3134.43228 693.011694,3135.2882 C692.253965,3135.50751 691.456293,3135.61658 690.632776,3135.61658 C690.051263,3135.61658 689.483847,3135.56086 688.932878,3135.45061 C690.082982,3139.15998 693.413467,3141.86168 697.365408,3141.934 C694.276926,3144.44129 690.382549,3145.93499 686.154536,3145.93499 C685.426176,3145.93499 684.706039,3145.89231 684,3145.80696 C687.995408,3148.45295 692.742671,3150 697.837668,3150 C714.444278,3150 723.52176,3135.7695 723.52176,3123.42511 C723.52176,3123.01849 723.513537,3122.61187 723.498265,3122.21473 C725.262776,3120.89648 726.793507,3119.2534 728,3117.37916 C726.38351,3118.12246 724.642495,3118.6251 722.816895,3118.84916 C724.681262,3117.6945 726.112138,3115.86412 726.786458,3113.68402" id="Fill-54"></path>
        </g>
    </g>
</svg>